<svg width="38" height="24" viewBox="0 0 38 24" fill="none" xmlns="http://www.w3.org/2000/svg">
<g filter="url(#filter0_d_156_1754)">
<path d="M12.6364 15V13.8333C12.6364 12.2862 13.3068 10.8025 14.5002 9.70854C15.6936 8.61458 17.3123 8 19 8M19 8C20.6877 8 22.3064 8.61458 23.4998 9.70854C24.6932 10.8025 25.3636 12.2862 25.3636 13.8333V15M19 8C20.0126 8 20.9838 7.63125 21.6999 6.97487C22.4159 6.3185 22.8182 5.42826 22.8182 4.5C22.8182 3.57174 22.4159 2.6815 21.6999 2.02513C20.9838 1.36875 20.0126 1 19 1C17.9874 1 17.0162 1.36875 16.3001 2.02513C15.5841 2.6815 15.1818 3.57174 15.1818 4.5C15.1818 5.42826 15.5841 6.3185 16.3001 6.97487C17.0162 7.63125 17.9874 8 19 8ZM5 15V13.8333C5 12.9051 5.40227 12.0148 6.11832 11.3585C6.83437 10.7021 7.80554 10.3333 8.81818 10.3333M8.81818 10.3333C9.49328 10.3333 10.1407 10.0875 10.6181 9.64992C11.0955 9.21233 11.3636 8.61884 11.3636 8C11.3636 7.38116 11.0955 6.78767 10.6181 6.35008C10.1407 5.9125 9.49328 5.66667 8.81818 5.66667C8.14309 5.66667 7.49564 5.9125 7.01827 6.35008C6.54091 6.78767 6.27273 7.38116 6.27273 8C6.27273 8.61884 6.54091 9.21233 7.01827 9.64992C7.49564 10.0875 8.14309 10.3333 8.81818 10.3333ZM33 15V13.8333C33 12.9051 32.5977 12.0148 31.8817 11.3585C31.1656 10.7021 30.1945 10.3333 29.1818 10.3333M29.1818 10.3333C29.8569 10.3333 30.5044 10.0875 30.9817 9.64992C31.4591 9.21233 31.7273 8.61884 31.7273 8C31.7273 7.38116 31.4591 6.78767 30.9817 6.35008C30.5044 5.9125 29.8569 5.66667 29.1818 5.66667C28.5067 5.66667 27.8593 5.9125 27.3819 6.35008C26.9045 6.78767 26.6364 7.38116 26.6364 8C26.6364 8.61884 26.9045 9.21233 27.3819 9.64992C27.8593 10.0875 28.5067 10.3333 29.1818 10.3333Z" stroke="#808080" stroke-width="1.5" stroke-linecap="round" stroke-linejoin="round" shape-rendering="crispEdges"/>
</g>
<defs>
<filter id="filter0_d_156_1754" x="0.25" y="0.25" width="37.5" height="23.5" filterUnits="userSpaceOnUse" color-interpolation-filters="sRGB">
<feFlood flood-opacity="0" result="BackgroundImageFix"/>
<feColorMatrix in="SourceAlpha" type="matrix" values="0 0 0 0 0 0 0 0 0 0 0 0 0 0 0 0 0 0 127 0" result="hardAlpha"/>
<feOffset dy="4"/>
<feGaussianBlur stdDeviation="2"/>
<feComposite in2="hardAlpha" operator="out"/>
<feColorMatrix type="matrix" values="0 0 0 0 0 0 0 0 0 0 0 0 0 0 0 0 0 0 0.25 0"/>
<feBlend mode="normal" in2="BackgroundImageFix" result="effect1_dropShadow_156_1754"/>
<feBlend mode="normal" in="SourceGraphic" in2="effect1_dropShadow_156_1754" result="shape"/>
</filter>
</defs>
</svg>
