<svg width="21" height="24" viewBox="0 0 21 24" fill="none" xmlns="http://www.w3.org/2000/svg">
<path fill-rule="evenodd" clip-rule="evenodd" d="M1.15081 13.9658V13.7249C1.18615 13.0123 1.41456 12.3217 1.81249 11.7246C2.47485 11.0072 2.92828 10.1281 3.12519 9.17958C3.12519 8.44645 3.12519 7.70285 3.18922 6.96973C3.52006 3.44026 7.00991 1 10.4571 1H10.5424C13.9896 1 17.4794 3.44026 17.821 6.96973C17.885 7.70285 17.821 8.44645 17.8743 9.17958C18.0739 10.1303 18.5268 11.0121 19.187 11.735C19.5879 12.3269 19.8167 13.0149 19.8487 13.7249V13.9554C19.8725 14.9128 19.5427 15.8465 18.9202 16.5841C18.0976 17.4466 16.9812 17.9832 15.7825 18.0923C12.2676 18.4693 8.72124 18.4693 5.20629 18.0923C4.00896 17.9785 2.89424 17.4427 2.06863 16.5841C1.4557 15.8459 1.13037 14.9178 1.15081 13.9658Z" stroke="#808080" stroke-linecap="round" stroke-linejoin="round"/>
<path d="M7.81042 21.7369C8.35963 22.4263 9.16613 22.8724 10.0514 22.9766C10.9368 23.0808 11.8279 22.8344 12.5276 22.292C12.7428 22.1316 12.9364 21.9451 13.1039 21.7369" stroke="#808080" stroke-linecap="round" stroke-linejoin="round"/>
</svg>
